<svg width="166" height="86" viewBox="0 0 166 86" fill="none" xmlns="http://www.w3.org/2000/svg">
<path d="M22.36 3.64H15.92L11.16 26H2.52L7.28 3.64H0.92L1.64 0.599998H23.04L22.36 3.64ZM45.2725 26H35.9125L35.3525 19.64H27.9525L25.1125 26H21.2325L33.0325 0.599998H42.5125L45.2725 26ZM29.2725 16.72H35.0725L34.1525 5.84L29.2725 16.72ZM73.5975 23.84C72.9308 24.16 72.2375 24.48 71.5175 24.8C70.8242 25.0933 70.0775 25.36 69.2775 25.6C68.4775 25.8133 67.5975 25.9867 66.6375 26.12C65.7042 26.2533 64.6775 26.32 63.5575 26.32C59.9842 26.32 57.2242 25.52 55.2775 23.92C53.3575 22.32 52.3975 19.6533 52.3975 15.92C52.3975 13.76 52.7308 11.7333 53.3975 9.84C54.0642 7.92 55.0508 6.25333 56.3575 4.84C57.6642 3.4 59.2775 2.26667 61.1975 1.44C63.1175 0.613332 65.3175 0.199998 67.7975 0.199998C68.9708 0.199998 70.0375 0.279998 70.9975 0.439998C71.9842 0.599999 72.8642 0.813333 73.6375 1.08C74.4375 1.32 75.1442 1.58667 75.7575 1.88C76.3975 2.17333 76.9708 2.45333 77.4775 2.72L76.0375 10.16H68.8375C68.8642 9.89333 68.8908 9.54667 68.9175 9.12C68.9708 8.69333 69.0108 8.26667 69.0375 7.84C69.0642 7.38667 69.0908 6.94667 69.1175 6.52C69.1442 6.09333 69.1575 5.73333 69.1575 5.44C69.1575 5.22667 69.1442 4.98667 69.1175 4.72C69.0908 4.42667 69.0242 4.14667 68.9175 3.88C68.8108 3.61333 68.6375 3.4 68.3975 3.24C68.1842 3.05333 67.8908 2.96 67.5175 2.96C66.8242 2.96 66.1842 3.25333 65.5975 3.84C65.0375 4.4 64.5308 5.16 64.0775 6.12C63.6242 7.05333 63.2242 8.12 62.8775 9.32C62.5308 10.52 62.2375 11.7467 61.9975 13C61.7842 14.2267 61.6108 15.44 61.4775 16.64C61.3708 17.84 61.3175 18.8933 61.3175 19.8C61.3175 20.0667 61.3308 20.4 61.3575 20.8C61.3842 21.2 61.4642 21.5867 61.5975 21.96C61.7308 22.3333 61.9308 22.6533 62.1975 22.92C62.4908 23.1867 62.8775 23.32 63.3575 23.32C64.1842 23.32 64.9842 22.8133 65.7575 21.8C66.5308 20.76 67.2108 18.92 67.7975 16.28H75.1975L73.5975 23.84ZM97.8244 0.199998C100.118 0.199998 101.971 0.493332 103.384 1.08C104.824 1.66667 105.958 2.57333 106.784 3.8C107.318 4.62667 107.731 5.56 108.024 6.6C108.318 7.64 108.464 8.84 108.464 10.2C108.464 11.3733 108.358 12.5467 108.144 13.72C107.931 14.8933 107.624 16.0267 107.224 17.12C106.851 18.1867 106.384 19.2 105.824 20.16C105.291 21.0933 104.691 21.92 104.024 22.64C102.771 24 101.318 24.96 99.6644 25.52C98.0377 26.0533 96.0244 26.32 93.6244 26.32C91.3044 26.32 89.4377 26.08 88.0244 25.6C86.611 25.12 85.491 24.3467 84.6644 23.28C84.0777 22.5333 83.611 21.5867 83.2644 20.44C82.9444 19.2933 82.7844 17.8533 82.7844 16.12C82.7844 13.16 83.3044 10.52 84.3444 8.2C85.411 5.85333 86.9177 4 88.8644 2.64C90.0377 1.81333 91.3444 1.2 92.7844 0.799998C94.2244 0.399998 95.9044 0.199998 97.8244 0.199998ZM93.3044 23.52C93.9177 23.52 94.491 23.2533 95.0244 22.72C95.5844 22.16 96.091 21.4267 96.5444 20.52C97.0244 19.5867 97.451 18.5333 97.8244 17.36C98.2244 16.1867 98.5577 14.9733 98.8244 13.72C99.091 12.4667 99.291 11.2267 99.4244 10C99.5844 8.74667 99.6644 7.61333 99.6644 6.6C99.6644 5.21333 99.5177 4.26667 99.2244 3.76C98.9577 3.22667 98.5577 2.96 98.0244 2.96C97.411 2.96 96.8244 3.22667 96.2644 3.76C95.7044 4.29333 95.171 5.01333 94.6644 5.92C94.1844 6.8 93.7444 7.82667 93.3444 9C92.971 10.1467 92.6377 11.3333 92.3444 12.56C92.0777 13.7867 91.8644 15 91.7044 16.2C91.571 17.4 91.5044 18.5067 91.5044 19.52C91.5044 21.04 91.6644 22.0933 91.9844 22.68C92.331 23.24 92.771 23.52 93.3044 23.52ZM136.326 3.64H129.886L125.126 26H116.486L121.246 3.64H114.886L115.606 0.599998H137.006L136.326 3.64ZM47.4325 66.4C47.4325 67.1733 47.3125 67.8667 47.0725 68.48C46.8592 69.0933 46.5525 69.64 46.1525 70.12C45.7525 70.6 45.2858 71.0267 44.7525 71.4C44.2192 71.7733 43.6325 72.12 42.9925 72.44C43.2858 72.5467 43.6325 72.72 44.0325 72.96C44.4325 73.1733 44.8192 73.48 45.1925 73.88C45.5658 74.28 45.8725 74.8 46.1125 75.44C46.3792 76.0533 46.5125 76.8133 46.5125 77.72C46.5125 78.92 46.2592 80.0267 45.7525 81.04C45.2458 82.0533 44.4858 82.9333 43.4725 83.68C42.4858 84.4 41.2592 84.9733 39.7925 85.4C38.3525 85.8 36.6858 86 34.7925 86H22.9125L28.3125 60.6H38.8325C39.8725 60.6 40.8992 60.68 41.9125 60.84C42.9525 60.9733 43.8725 61.2533 44.6725 61.68C45.4992 62.1067 46.1658 62.7067 46.6725 63.48C47.1792 64.2267 47.4325 65.2 47.4325 66.4ZM36.5525 71.24C37.1392 71.24 37.6325 71.0667 38.0325 70.72C38.4592 70.3733 38.8058 69.9467 39.0725 69.44C39.3392 68.9067 39.5392 68.3467 39.6725 67.76C39.8058 67.1467 39.8725 66.6 39.8725 66.12C39.8725 65.3467 39.6858 64.6933 39.3125 64.16C38.9658 63.6 38.4058 63.32 37.6325 63.32H36.4325L34.7125 71.24H36.5525ZM33.6725 83.48C34.4725 83.48 35.1392 83.2533 35.6725 82.8C36.2058 82.3467 36.6458 81.7867 36.9925 81.12C37.3392 80.4533 37.5792 79.76 37.7125 79.04C37.8725 78.2933 37.9525 77.64 37.9525 77.08C37.9525 76.1467 37.7525 75.4133 37.3525 74.88C36.9792 74.32 36.3658 74.04 35.5125 74.04H34.0325L32.0725 83.48H33.6725ZM61.2353 86H52.5953L57.9953 60.6H66.6753L61.2353 86ZM75.8422 60.6H92.6822L92.0422 63.64H83.8822L82.2022 71.36H89.0422L88.4022 74.36H81.5622L79.7222 82.92H87.8822L87.2822 86H70.4422L75.8422 60.6ZM100.759 60.6H109.439L104.719 82.64H112.839L112.159 86H95.3594L100.759 60.6ZM124.856 60.6H133.536L128.816 82.64H136.936L136.256 86H119.456L124.856 60.6ZM148.953 60.6H165.793L165.153 63.64H156.993L155.313 71.36H162.153L161.513 74.36H154.673L152.833 82.92H160.993L160.393 86H143.553L148.953 60.6Z" fill="#F7C846"/>
</svg>
